<svg width="48" height="48" viewBox="0 0 48 48" fill="none" xmlns="http://www.w3.org/2000/svg">
<g clip-path="url(#clip0_41_11)">
<circle cx="24" cy="24" r="24" fill="#1976D2"/>
<path d="M35.937 17.541C35.983 17.39 36.005 17.25 35.999 17.125C35.984 16.763 35.735 16.5 35.149 16.5H32.531C31.87 16.5 31.565 16.9 31.387 17.301C31.387 17.301 29.755 20.66 27.874 22.875C27.264 23.516 26.954 23.5 26.624 23.5C26.447 23.5 26 23.286 26 22.699V17.514C26 16.82 25.827 16.5 25.268 16.5H20.619C20.212 16.5 20 16.82 20 17.141C20 17.808 20.898 17.968 21 19.837V23.46C21 24.34 20.847 24.5 20.517 24.5C19.627 24.5 17.875 21.5 16.702 17.568C16.448 16.794 16.194 16.5 15.533 16.5H12.89C12.127 16.5 12 16.874 12 17.274C12 17.995 12.6 21.893 15.875 26.375C18.25 29.625 21.379 31.5 24.149 31.5C25.827 31.5 25.999 31.073 25.999 30.406V27.434C26 26.633 26.183 26.5 26.717 26.5C27.098 26.5 27.875 26.75 29.375 28.5C31.105 30.518 31.419 31.5 32.411 31.5H35.029C35.637 31.5 35.986 31.245 36 30.75C36.003 30.624 35.985 30.483 35.944 30.326C35.75 29.75 34.86 28.342 33.75 27C33.135 26.257 32.528 25.521 32.249 25.121C32.062 24.86 31.991 24.676 32 24.5C32.009 24.315 32.105 24.139 32.249 23.893C32.223 23.893 35.607 19.142 35.937 17.541Z" fill="white"/>
</g>
<defs>
<clipPath id="clip0_41_11">
<rect width="48" height="48" fill="white"/>
</clipPath>
</defs>
</svg>
